<svg width="572" height="323" viewBox="0 0 572 323" fill="none" xmlns="http://www.w3.org/2000/svg">
<g clip-path="url(#clip0_47_2)">
<mask id="mask0_47_2" style="mask-type:alpha" maskUnits="userSpaceOnUse" x="0" y="0" width="3302" height="324">
<g clip-path="url(#clip1_47_2)">
<path d="M522.66 49.5102H547.38V74.2302H571.79V273.79H547.34L547.43 273.87V74.4202H522.76V49.4102L522.68 49.5102H522.66Z" fill="black"/>
<path d="M0.04 74.4402H24.34V49.5102H49.31L49.23 49.4102C49.23 57.6802 49.23 65.9602 49.23 74.6402H24.59C24.59 76.7502 24.59 78.4502 24.59 80.1502C24.58 144.72 24.56 209.29 24.55 273.86L24.64 273.78H0" fill="black"/>
<path d="M373.16 273.79C315.04 273.79 256.92 273.79 198.81 273.79L198.9 273.87V249.01H373.08V273.87L373.17 273.79H373.16Z" fill="black"/>
<path d="M198.79 24.8399C200.27 24.7699 201.75 24.6499 203.23 24.6499C258.75 24.6499 314.27 24.6499 369.79 24.6499C370.93 24.6499 372.06 24.7699 373.2 24.8399L373.08 24.7299V49.2999H198.91V24.7299L198.8 24.8399H198.79Z" fill="black"/>
<path d="M373.19 24.84V0H497.62V24.58H522.66C522.66 33.13 522.66 41.32 522.66 49.52L522.74 49.42H497.5V24.74H373.07L373.19 24.85V24.84Z" fill="black"/>
<path d="M74.49 0.200195H198.78C198.78 8.2802 198.78 16.5602 198.78 24.8402L198.89 24.7302H74.23V49.4202H49.22L49.3 49.5202V24.7902H74.24" fill="black"/>
<path d="M522.65 298.48V323.34H422.72V298.67H373.15C373.15 290.15 373.15 281.97 373.15 273.79L373.06 273.87C374.77 273.81 376.48 273.7 378.18 273.7C383.04 273.71 387.9 273.8 392.77 273.81C402.69 273.83 412.6 273.81 422.93 273.81V298.54H522.71L522.64 298.46L522.65 298.48Z" fill="black"/>
<path d="M198.89 273.87L198.8 273.79V298.56H149.24V323.36H49.31V298.48L49.24 298.55H149.12V273.89" fill="black"/>
<path d="M49.31 298.48H24.63C24.63 290.11 24.63 281.95 24.63 273.79L24.54 273.87H49.24V298.55L49.31 298.48Z" fill="black"/>
<path d="M547.33 273.79V298.48C538.96 298.48 530.81 298.48 522.65 298.48L522.72 298.56V273.88H547.42L547.33 273.8V273.79Z" fill="black"/>
<path d="M99.48 174.14H49.76V124.42H99.26V74.7998H148.92V124.24H198.63V174.01H149.08V223.57H99.49V174.13L99.48 174.14Z" fill="black"/>
<path d="M223.93 198.77V174.38H248.32V198.77H223.93Z" fill="black"/>
<path d="M298.75 198.85V174.46H323.14V198.85H298.75Z" fill="black"/>
<path d="M323.14 174.38V149.99H347.53V174.38H323.14Z" fill="black"/>
<path d="M372.11 174.75V123.59H423.27V174.75H372.11Z" fill="black"/>
<path d="M423.44 123.59V72.4302H474.6V123.59H423.44Z" fill="black"/>
<path d="M474.6 174.75V123.59H525.76V174.75H474.6Z" fill="black"/>
<path d="M423.44 225.91V174.75H474.6V225.91H423.44Z" fill="black"/>
<path d="M248.33 174.38V149.99H272.72V174.38H248.33Z" fill="black"/>
</g>
</mask>
<g mask="url(#mask0_47_2)">
<rect width="572" height="323" fill="url(#paint0_linear_47_2)"/>
</g>
</g>
<defs>
<linearGradient id="paint0_linear_47_2" x1="0" y1="161.5" x2="572" y2="161.5" gradientUnits="userSpaceOnUse">
<stop stop-color="#EC00F0"/>
<stop offset="1" stop-color="#51CCDC"/>
</linearGradient>
<clipPath id="clip0_47_2">
<rect width="572" height="323" fill="white"/>
</clipPath>
<clipPath id="clip1_47_2">
<rect width="571.78" height="323.36" fill="white"/>
</clipPath>
</defs>
</svg>
