<svg width="3302" height="600" viewBox="0 0 3302 600" fill="none" xmlns="http://www.w3.org/2000/svg">
<mask id="mask0_43_99" style="mask-type:alpha" maskUnits="userSpaceOnUse" x="0" y="138" width="3302" height="324">
<g clip-path="url(#clip0_43_99)">
<path d="M522.66 187.51H547.38V212.23H571.79V411.79H547.34L547.43 411.87V212.42H522.76V187.41L522.68 187.51H522.66Z" fill="black"/>
<path d="M0.04 212.44H24.34V187.51H49.31L49.23 187.41C49.23 195.68 49.23 203.96 49.23 212.64H24.59C24.59 214.75 24.59 216.45 24.59 218.15C24.58 282.72 24.56 347.29 24.55 411.86L24.64 411.78H0" fill="black"/>
<path d="M373.16 411.79C315.04 411.79 256.92 411.79 198.81 411.79L198.9 411.87V387.01H373.08V411.87L373.17 411.79H373.16Z" fill="black"/>
<path d="M198.79 162.84C200.27 162.77 201.75 162.65 203.23 162.65C258.75 162.65 314.27 162.65 369.79 162.65C370.93 162.65 372.06 162.77 373.2 162.84L373.08 162.73V187.3H198.91V162.73L198.8 162.84H198.79Z" fill="black"/>
<path d="M373.19 162.84V138H497.62V162.58H522.66C522.66 171.13 522.66 179.32 522.66 187.52L522.74 187.42H497.5V162.74H373.07L373.19 162.85V162.84Z" fill="black"/>
<path d="M74.49 138.2H198.78C198.78 146.28 198.78 154.56 198.78 162.84L198.89 162.73H74.23V187.42H49.22L49.3 187.52V162.79H74.24" fill="black"/>
<path d="M522.65 436.48V461.34H422.72V436.67H373.15C373.15 428.15 373.15 419.97 373.15 411.79L373.06 411.87C374.77 411.81 376.48 411.7 378.18 411.7C383.04 411.71 387.9 411.8 392.77 411.81C402.69 411.83 412.6 411.81 422.93 411.81V436.54H522.71L522.64 436.46L522.65 436.48Z" fill="black"/>
<path d="M198.89 411.87L198.8 411.79V436.56H149.24V461.36H49.31V436.48L49.24 436.55H149.12V411.89" fill="black"/>
<path d="M49.31 436.48H24.63C24.63 428.11 24.63 419.95 24.63 411.79L24.54 411.87H49.24V436.55L49.31 436.48Z" fill="black"/>
<path d="M547.33 411.79V436.48C538.96 436.48 530.81 436.48 522.65 436.48L522.72 436.56V411.88H547.42L547.33 411.8V411.79Z" fill="black"/>
<path d="M99.48 312.14H49.76V262.42H99.26V212.8H148.92V262.24H198.63V312.01H149.08V361.57H99.49V312.13L99.48 312.14Z" fill="black"/>
<path d="M223.93 336.77V312.38H248.32V336.77H223.93Z" fill="black"/>
<path d="M298.75 336.85V312.46H323.14V336.85H298.75Z" fill="black"/>
<path d="M323.14 312.38V287.99H347.53V312.38H323.14Z" fill="black"/>
<path d="M372.11 312.75V261.59H423.27V312.75H372.11Z" fill="black"/>
<path d="M423.44 261.59V210.43H474.6V261.59H423.44Z" fill="black"/>
<path d="M474.6 312.75V261.59H525.76V312.75H474.6Z" fill="black"/>
<path d="M423.44 363.91V312.75H474.6V363.91H423.44Z" fill="black"/>
<path d="M248.33 312.38V287.99H272.72V312.38H248.33Z" fill="black"/>
</g>
<path d="M3121.78 405V375H3091.78V345H3121.78V315H3241.78V285H3121.78V255H3271.78V285H3301.78V405H3121.78ZM3151.78 375H3241.78V345H3151.78V375Z" fill="black"/>
<path d="M2941.78 225V195H3001.78V225H2941.78ZM2881.78 405V375H2941.78V285H2911.78V255H3001.78V375H3061.78V405H2881.78Z" fill="black"/>
<path d="M2611.78 405V255H2791.78V285H2821.78V405H2761.78V285H2671.78V405H2611.78Z" fill="black"/>
<path d="M2401.78 405V375H2371.78V345H2401.78V315H2521.78V285H2401.78V255H2551.78V285H2581.78V405H2401.78ZM2431.78 375H2521.78V345H2431.78V375Z" fill="black"/>
<path d="M2131.78 405V255H2311.78V285H2341.78V405H2281.78V285H2251.78V405H2191.78V285H2161.78V405H2131.78Z" fill="black"/>
<path d="M1921.78 405V375H1891.78V285H1921.78V255H2071.78V285H2101.78V375H2071.78V405H1921.78ZM1951.78 375H2041.78V285H1951.78V375Z" fill="black"/>
<path d="M1681.78 405V375H1651.78V285H1681.78V255H1801.78V195H1861.78V405H1681.78ZM1711.78 375H1801.78V285H1711.78V375Z" fill="black"/>
<path d="M1441.78 405V375H1411.78V345H1441.78V315H1561.78V285H1441.78V255H1591.78V285H1621.78V405H1441.78ZM1471.78 375H1561.78V345H1471.78V375Z" fill="black"/>
<path d="M1201.78 405V375H1171.78V285H1201.78V255H1381.78V285H1231.78V375H1381.78V405H1201.78Z" fill="black"/>
<path d="M1021.78 285H1051.78V315H1021.78V405H961.78V255H1021.78V285ZM1141.78 255V285H1051.78V255H1141.78Z" fill="black"/>
<path d="M721.78 405V375H691.78V345H721.78V315H841.78V285H721.78V255H871.78V285H901.78V405H721.78ZM751.78 375H841.78V345H751.78V375Z" fill="black"/>
</mask>
<g mask="url(#mask0_43_99)">
<rect y="138" width="3302" height="323" fill="url(#paint0_linear_43_99)"/>
</g>
<defs>
<linearGradient id="paint0_linear_43_99" x1="0" y1="299.5" x2="3302" y2="299.5" gradientUnits="userSpaceOnUse">
<stop stop-color="#EC00F0"/>
<stop offset="1" stop-color="#51CCDC"/>
</linearGradient>
<clipPath id="clip0_43_99">
<rect width="571.78" height="323.36" fill="white" transform="translate(0 138)"/>
</clipPath>
</defs>
</svg>
