<svg width="37" height="36" viewBox="0 0 37 36" fill="none" xmlns="http://www.w3.org/2000/svg">
<g clip-path="url(#clip0_38_24)">
<path d="M10.6511 25.3705C10.5017 25.3884 10.3523 25.4222 10.2029 25.4222C9.06576 25.4269 7.92866 25.425 6.79156 25.425C6.66469 25.425 6.53782 25.425 6.36209 25.425V33.9091H4.21476L4.2251 33.9194C4.22698 33.8847 4.23074 33.8489 4.23074 33.8142C4.23074 23.3547 4.23074 12.8953 4.23074 2.43587C4.23074 2.33532 4.21476 2.23571 4.20442 2.10602H2.10596L2.11629 2.11636C2.11441 1.41154 2.11347 0.70579 2.1116 0.000976562H10.6229C10.6314 0.697332 10.6408 1.39369 10.6492 2.0891L10.6568 2.08253C10.1897 2.0938 9.7217 2.1126 9.25465 2.11542C8.30644 2.12012 7.35729 2.1173 6.38089 2.1173V23.289H10.5694C10.5957 24.0116 10.621 24.6948 10.6464 25.378L10.653 25.3714L10.6511 25.3705Z" fill="white"/>
<path d="M2.1135 33.909C1.40869 33.9109 0.703874 33.9118 0 33.9137V2.11062C0.704814 2.1125 1.40963 2.11344 2.11538 2.11532L2.10504 2.10498C2.1088 2.22245 2.11538 2.33898 2.11538 2.45645C2.11538 12.8275 2.11538 23.1977 2.11538 33.5688C2.11538 33.6863 2.1088 33.8028 2.10504 33.9203L2.11444 33.9099L2.1135 33.909Z" fill="white"/>
<path d="M36.016 0V25.3893C35.9333 25.4024 35.8685 25.4222 35.8037 25.4222C34.5387 25.424 33.2738 25.425 32.0089 25.4222C31.9309 25.4222 31.8539 25.3893 31.7759 25.3723L31.7834 25.3827V23.3068H33.8828V2.11726H31.8069L31.8172 2.12666C31.8097 1.41808 31.8022 0.708573 31.7956 0L36.016 0Z" fill="white"/>
<path d="M14.8584 4.20642C14.9975 4.21488 15.1375 4.23179 15.2766 4.23179C19.2141 4.23273 23.1526 4.23273 27.0902 4.23273C27.2274 4.23273 27.3646 4.23273 27.5225 4.23273V6.32368H14.8687C14.8687 5.61511 14.8687 4.90559 14.8687 4.19702L14.8584 4.20642Z" fill="white"/>
<path d="M27.593 27.6006C27.5771 28.0535 27.5573 28.5065 27.5451 28.9595C27.5385 29.1794 27.5442 29.4002 27.5442 29.6464H14.8604V27.5508H15.2804C19.2264 27.5508 23.1734 27.5508 27.1194 27.5536C27.2801 27.5536 27.4408 27.5902 27.6015 27.61L27.594 27.6015L27.593 27.6006Z" fill="white"/>
<path d="M31.7756 25.3723V27.5506C31.6234 27.5506 31.4974 27.5506 31.3725 27.5506C30.2372 27.5506 29.1011 27.5487 27.9659 27.5525C27.8409 27.5525 27.7168 27.5826 27.5928 27.5995L27.6012 27.6079C27.6012 26.9013 27.6012 26.1936 27.6012 25.4428C27.6943 25.4371 27.8164 25.4249 27.9395 25.4249C29.0954 25.423 30.2513 25.4249 31.4072 25.4221C31.5332 25.4221 31.6581 25.3967 31.7831 25.3826L31.7747 25.3713L31.7756 25.3723Z" fill="white"/>
<path d="M10.6445 25.3769C10.7685 25.3929 10.8935 25.422 11.0176 25.422C12.1528 25.4258 13.288 25.4239 14.4232 25.4239C14.5492 25.4239 14.6741 25.4239 14.8161 25.4239V27.5224H10.6492C10.6492 26.8035 10.6492 26.0865 10.6492 25.3704L10.6436 25.3769H10.6445Z" fill="white"/>
<path d="M10.6484 2.08812C11.872 2.09752 13.0946 2.10598 14.3181 2.11537C14.4779 2.11631 14.6376 2.11537 14.8566 2.11537C14.8566 2.83898 14.8566 3.52312 14.8566 4.20632C14.8566 4.20632 14.8669 4.19692 14.8679 4.19598C14.5662 4.2082 14.2646 4.22982 13.962 4.23075C12.8549 4.23545 11.747 4.23263 10.654 4.23263C10.654 3.49117 10.654 2.7873 10.654 2.08154L10.6475 2.08812H10.6484Z" fill="white"/>
<path d="M31.8068 2.11719V4.20626H27.5723V2.12565C28.9922 2.12565 30.4047 2.12565 31.8171 2.12565L31.8068 2.11719Z" fill="white"/>
<path d="M4.21375 33.9089V35.9999H2.1134C2.1134 35.3035 2.1134 34.6062 2.1134 33.9089L2.104 33.9193C2.8107 33.9193 3.51739 33.9193 4.22408 33.9193L4.21375 33.9089Z" fill="white"/>
</g>
<defs>
<clipPath id="clip0_38_24">
<rect width="36.016" height="36" fill="white"/>
</clipPath>
</defs>
</svg>
