<svg width="36" height="36" viewBox="0 0 36 36" fill="none" xmlns="http://www.w3.org/2000/svg">
<path d="M6 0H29.27C29.27 0.15 29.2 35.91 29.2 35.91C29.2 35.91 11.53 36 6 36C6 24 6 12 6 0ZM20.84 33.89H27.17C27.17 33.89 27.17 2.25 27.17 2.14H8.14V33.87H10.3V31.8H12.4V33.87H14.51V31.81H16.62V33.88H18.72V31.82H20.82V33.9L20.84 33.89Z" fill="white"/>
<path d="M25.0398 4.23999V14.81H10.3198V4.23999H25.0398ZM12.4098 12.7H22.9098V6.34999H12.4098V12.7Z" fill="white"/>
<path d="M12.4001 19.06V16.97H14.5001V19.06H14.5101C13.8001 19.06 13.1001 19.06 12.3901 19.06H12.4001Z" fill="white"/>
<path d="M22.9499 19.06V16.97H25.0299V19.05H22.9399L22.9499 19.06Z" fill="white"/>
<path d="M12.4001 21.1601H10.3101V19.0601H12.4001H12.3901V21.1801L12.4001 21.1601Z" fill="white"/>
<path d="M14.5002 19.06H16.5902V21.16H14.5002V19.05H14.4902L14.5002 19.06Z" fill="white"/>
<path d="M22.9401 19.05C22.9401 19.76 22.9401 20.46 22.9401 21.17C22.2501 21.17 21.5601 21.17 20.8501 21.17V19.07C21.5501 19.07 22.2401 19.07 22.9401 19.07V19.06V19.05Z" fill="white"/>
<path d="M14.4999 21.1599V23.2499H12.3999C12.3999 22.5499 12.3999 21.8599 12.3999 21.1599V21.1699H14.5199L14.4999 21.1599Z" fill="white"/>
<path d="M22.9399 21.1699H25.0299V23.2499H22.9499C22.9499 22.5499 22.9499 21.8499 22.9499 21.1599H22.9399V21.1699Z" fill="white"/>
</svg>
