<svg width="36" height="32" viewBox="0 0 36 32" fill="none" xmlns="http://www.w3.org/2000/svg">
<g clip-path="url(#clip0_39_35)">
<path d="M19.2202 2.41H21.6202L21.6302 0.02H31.2102L31.1902 2.41C31.2402 2.41 33.6002 2.41 33.6002 2.41V4.82L36.0102 4.81C36.0102 4.81 36.0002 14.27 35.9902 14.4C35.7402 14.4 33.6002 14.4 33.6002 14.4C33.6002 14.4 33.6002 16.67 33.6002 16.8C33.4702 16.8 31.2002 16.81 31.2002 16.81V19.21C31.2002 19.21 28.9402 19.22 28.8002 19.23C28.8002 19.91 28.8002 21.61 28.8002 21.61H26.4002C26.4002 21.61 26.4002 23.29 26.4002 24C26.2902 24 23.9902 24.01 23.9902 24.01V26.42C23.9902 26.42 21.7502 26.42 21.5902 26.42C21.5902 26.66 21.5902 28.83 21.5902 28.83H19.1902C19.1902 28.83 19.1802 31.09 19.1702 31.21H16.8002C16.8002 31.01 16.8002 28.83 16.8002 28.83C16.8002 28.83 15.1302 28.83 14.4202 28.83C14.4202 28.72 14.4002 26.43 14.4002 26.43H11.9902V24.03C11.9902 24.03 9.70023 24.02 9.58023 24.01C9.58023 23.51 9.58023 21.62 9.58023 21.62C9.58023 21.62 7.32023 21.62 7.19023 21.62C7.19023 21.49 7.17023 19.23 7.17023 19.23H4.77023L4.78023 16.82H2.37023L2.38023 14.43C2.38023 14.43 0.900234 14.43 0.350234 14.43H-0.00976562V4.81C0.380234 4.81 2.37023 4.81 2.37023 4.81V2.41H4.78023V0H14.3602L14.3402 2.42H16.7502V4.81H19.1902V2.4L19.2202 2.41ZM7.16023 9.63C7.16023 8.82 7.16023 7.99 7.16023 7.2H9.59023C9.59023 6.43 9.58023 4.79 9.58023 4.79H9.37023L7.15023 4.78V5.02C7.15023 5.02 7.16023 6.48 7.16023 7.21C6.42023 7.21 4.74023 7.21 4.74023 7.21V7.42V9.37V9.63H7.15023H7.16023Z" fill="white"/>
</g>
<defs>
<clipPath id="clip0_39_35">
<rect width="36" height="31.2" fill="white"/>
</clipPath>
</defs>
</svg>
