<svg width="3302" height="784" viewBox="0 0 3302 784" fill="none" xmlns="http://www.w3.org/2000/svg">
<mask id="mask0_43_99" style="mask-type:alpha" maskUnits="userSpaceOnUse" x="0" y="230" width="3302" height="324">
<g clip-path="url(#clip0_43_99)">
<path d="M522.66 279.51H547.38V304.23H571.79V503.79H547.34L547.43 503.87V304.42H522.76V279.41L522.68 279.51H522.66Z" fill="black"/>
<path d="M0.04 304.44H24.34V279.51H49.31L49.23 279.41C49.23 287.68 49.23 295.96 49.23 304.64H24.59C24.59 306.75 24.59 308.45 24.59 310.15C24.58 374.72 24.56 439.29 24.55 503.86L24.64 503.78H0" fill="black"/>
<path d="M373.16 503.79C315.04 503.79 256.92 503.79 198.81 503.79L198.9 503.87V479.01H373.08V503.87L373.17 503.79H373.16Z" fill="black"/>
<path d="M198.79 254.84C200.27 254.77 201.75 254.65 203.23 254.65C258.75 254.65 314.27 254.65 369.79 254.65C370.93 254.65 372.06 254.77 373.2 254.84L373.08 254.73V279.3H198.91V254.73L198.8 254.84H198.79Z" fill="black"/>
<path d="M373.19 254.84V230H497.62V254.58H522.66C522.66 263.13 522.66 271.32 522.66 279.52L522.74 279.42H497.5V254.74H373.07L373.19 254.85V254.84Z" fill="black"/>
<path d="M74.49 230.2H198.78C198.78 238.28 198.78 246.56 198.78 254.84L198.89 254.73H74.23V279.42H49.22L49.3 279.52V254.79H74.24" fill="black"/>
<path d="M522.65 528.48V553.34H422.72V528.67H373.15C373.15 520.15 373.15 511.97 373.15 503.79L373.06 503.87C374.77 503.81 376.48 503.7 378.18 503.7C383.04 503.71 387.9 503.8 392.77 503.81C402.69 503.83 412.6 503.81 422.93 503.81V528.54H522.71L522.64 528.46L522.65 528.48Z" fill="black"/>
<path d="M198.89 503.87L198.8 503.79V528.56H149.24V553.36H49.31V528.48L49.24 528.55H149.12V503.89" fill="black"/>
<path d="M49.31 528.48H24.63C24.63 520.11 24.63 511.95 24.63 503.79L24.54 503.87H49.24V528.55L49.31 528.48Z" fill="black"/>
<path d="M547.33 503.79V528.48C538.96 528.48 530.81 528.48 522.65 528.48L522.72 528.56V503.88H547.42L547.33 503.8V503.79Z" fill="black"/>
<path d="M99.48 404.14H49.76V354.42H99.26V304.8H148.92V354.24H198.63V404.01H149.08V453.57H99.49V404.13L99.48 404.14Z" fill="black"/>
<path d="M223.93 428.77V404.38H248.32V428.77H223.93Z" fill="black"/>
<path d="M298.75 428.85V404.46H323.14V428.85H298.75Z" fill="black"/>
<path d="M323.14 404.38V379.99H347.53V404.38H323.14Z" fill="black"/>
<path d="M372.11 404.75V353.59H423.27V404.75H372.11Z" fill="black"/>
<path d="M423.44 353.59V302.43H474.6V353.59H423.44Z" fill="black"/>
<path d="M474.6 404.75V353.59H525.76V404.75H474.6Z" fill="black"/>
<path d="M423.44 455.91V404.75H474.6V455.91H423.44Z" fill="black"/>
<path d="M248.33 404.38V379.99H272.72V404.38H248.33Z" fill="black"/>
</g>
<path d="M3121.78 497V467H3091.78V437H3121.78V407H3241.78V377H3121.78V347H3271.78V377H3301.78V497H3121.78ZM3151.78 467H3241.78V437H3151.78V467Z" fill="black"/>
<path d="M2941.78 317V287H3001.78V317H2941.78ZM2881.78 497V467H2941.78V377H2911.78V347H3001.78V467H3061.78V497H2881.78Z" fill="black"/>
<path d="M2611.78 497V347H2791.78V377H2821.78V497H2761.78V377H2671.78V497H2611.78Z" fill="black"/>
<path d="M2401.78 497V467H2371.78V437H2401.78V407H2521.78V377H2401.78V347H2551.78V377H2581.78V497H2401.78ZM2431.78 467H2521.78V437H2431.78V467Z" fill="black"/>
<path d="M2131.78 497V347H2311.78V377H2341.78V497H2281.78V377H2251.78V497H2191.78V377H2161.78V497H2131.78Z" fill="black"/>
<path d="M1921.78 497V467H1891.78V377H1921.78V347H2071.78V377H2101.78V467H2071.78V497H1921.78ZM1951.78 467H2041.78V377H1951.78V467Z" fill="black"/>
<path d="M1681.78 497V467H1651.78V377H1681.78V347H1801.78V287H1861.78V497H1681.78ZM1711.78 467H1801.78V377H1711.78V467Z" fill="black"/>
<path d="M1441.78 497V467H1411.78V437H1441.78V407H1561.78V377H1441.78V347H1591.78V377H1621.78V497H1441.78ZM1471.78 467H1561.78V437H1471.78V467Z" fill="black"/>
<path d="M1201.78 497V467H1171.78V377H1201.78V347H1381.78V377H1231.78V467H1381.78V497H1201.78Z" fill="black"/>
<path d="M1021.78 377H1051.78V407H1021.78V497H961.78V347H1021.78V377ZM1141.78 347V377H1051.78V347H1141.78Z" fill="black"/>
<path d="M721.78 497V467H691.78V437H721.78V407H841.78V377H721.78V347H871.78V377H901.78V497H721.78ZM751.78 467H841.78V437H751.78V467Z" fill="black"/>
</mask>
<g mask="url(#mask0_43_99)">
<rect y="230" width="3302" height="323" fill="url(#paint0_linear_43_99)"/>
</g>
<defs>
<linearGradient id="paint0_linear_43_99" x1="0" y1="391.5" x2="3302" y2="391.5" gradientUnits="userSpaceOnUse">
<stop stop-color="#EC00F0"/>
<stop offset="1" stop-color="#51CCDC"/>
</linearGradient>
<clipPath id="clip0_43_99">
<rect width="571.78" height="323.36" fill="white" transform="translate(0 230)"/>
</clipPath>
</defs>
</svg>
