<svg width="36" height="36" viewBox="0 0 36 36" fill="none" xmlns="http://www.w3.org/2000/svg">
<g clip-path="url(#clip0_38_2)">
<path d="M24.2412 33.6778C24.243 34.4521 24.2448 35.2256 24.2465 36H11.7256C11.7274 35.2256 11.7291 34.4521 11.7309 33.6778L11.7212 33.6848H14.0363V31.2781H16.4431V33.6276H19.5546V31.2781C20.3721 31.2781 21.1535 31.2781 21.9358 31.2781C21.9358 32.0568 21.9358 32.8356 21.9358 33.6848H24.2509L24.2412 33.6778Z" fill="white"/>
<path d="M35.993 24.2509C35.2195 24.2491 34.4452 24.2474 33.6717 24.2456L33.6787 24.2553C33.6682 24.1161 33.6497 23.9778 33.6497 23.8386C33.6479 21.7798 33.6479 19.7219 33.6479 17.6631C33.6479 17.5257 33.6479 17.3883 33.6479 17.2227C32.8313 17.2227 32.0516 17.2227 31.272 17.2227C31.272 16.4439 31.272 15.6651 31.272 14.8459H33.6479C33.6479 14.6547 33.6461 14.5049 33.6479 14.3552C33.6576 13.4778 33.6682 12.6003 33.6787 11.7229L33.6717 11.7326C34.4452 11.7308 35.2195 11.7291 35.993 11.7273V24.2509Z" fill="white"/>
<path d="M11.73 2.29928V0H24.2412V2.29928L24.2509 2.29223H21.9358V4.69898H19.529V2.34949H16.4175V4.69898C15.6 4.69898 14.8186 4.69898 14.0363 4.69898C14.0363 3.92023 14.0363 3.14147 14.0363 2.29223H11.7212L11.7309 2.29928H11.73Z" fill="white"/>
<path d="M2.29928 24.2456H0V11.7326H2.29928L2.29223 11.7229C2.29223 12.7501 2.29223 13.7773 2.29223 14.8556H4.6981V17.2227H2.32218V17.6631C2.32218 19.7219 2.32218 21.7798 2.32042 23.8386C2.32042 23.9778 2.30104 24.1161 2.29135 24.2553L2.2984 24.2456H2.29928Z" fill="white"/>
<path d="M7.01565 4.69732V2.32317C7.17598 2.32317 7.31076 2.32317 7.44643 2.32317C8.74583 2.32317 10.0452 2.32317 11.3455 2.32228C11.4732 2.32228 11.601 2.30731 11.7296 2.30026L11.7199 2.29321C11.7234 3.09488 11.7278 3.89742 11.7314 4.69909C10.1562 4.69556 8.58197 4.69116 7.00684 4.68763L7.01653 4.69732H7.01565Z" fill="white"/>
<path d="M24.2412 2.29938C25.6454 2.30731 27.0497 2.31524 28.4539 2.32317C28.6037 2.32317 28.7534 2.32317 28.9552 2.32317V4.69732L28.9649 4.68763C27.3906 4.69116 25.8155 4.69556 24.2412 4.69909C24.2447 3.89742 24.2483 3.09488 24.2518 2.29321L24.2421 2.30026L24.2412 2.29938Z" fill="white"/>
<path d="M31.2739 7.0176H33.6481C33.6481 7.17793 33.6481 7.31272 33.6481 7.44838C33.6481 8.74866 33.6481 10.0481 33.649 11.3483C33.649 11.4761 33.6639 11.6047 33.671 11.7324L33.678 11.7228H31.2836V7.00879L31.2739 7.01848V7.0176Z" fill="white"/>
<path d="M2.29914 11.7316C2.30706 10.3274 2.31499 8.92314 2.32292 7.51803C2.32292 7.36827 2.32292 7.21851 2.32292 7.01677H4.69708L4.68739 7.00708V11.721H2.29297L2.30002 11.7307L2.29914 11.7316Z" fill="white"/>
<path d="M4.6961 28.9604H2.32194C2.32194 28.8001 2.32194 28.6653 2.32194 28.5297C2.32194 27.2294 2.32194 25.93 2.32106 24.6297C2.32106 24.502 2.30609 24.3733 2.29904 24.2456L2.29199 24.2553H4.68641V28.9693L4.6961 28.9596V28.9604Z" fill="white"/>
<path d="M11.73 33.6778C10.3258 33.6699 8.92153 33.6619 7.5173 33.654C7.36754 33.654 7.21778 33.654 7.01604 33.654V31.2798L7.00635 31.2895C8.58149 31.286 10.1557 31.2816 11.7309 31.2781C11.7274 32.0797 11.723 32.8823 11.7194 33.6839L11.7291 33.6769L11.73 33.6778Z" fill="white"/>
<path d="M4.69612 7.01771V4.69817C5.48369 4.69817 6.24923 4.69817 7.01566 4.69817L7.00597 4.68848C7.00597 5.45402 7.00597 6.22045 7.00597 7.0089H4.68555L4.69524 7.01859L4.69612 7.01771Z" fill="white"/>
<path d="M28.954 4.69734H31.2735C31.2735 5.48491 31.2735 6.25133 31.2735 7.01688L31.2832 7.00719C30.5177 7.00719 29.7521 7.00719 28.9628 7.00719V4.68677L28.9531 4.69646L28.954 4.69734Z" fill="white"/>
<path d="M7.01575 31.28H4.69621C4.69621 30.4924 4.69621 29.726 4.69621 28.9604L4.68652 28.9701H7.00694V31.2906L7.01663 31.2809L7.01575 31.28Z" fill="white"/>
<path d="M33.6719 24.2456C33.6639 25.6498 33.656 27.0541 33.6481 28.4592C33.6481 28.6089 33.6481 28.7587 33.6481 28.9604H31.2739L31.2836 28.9701V24.2562H33.678L33.671 24.2465L33.6719 24.2456Z" fill="white"/>
<path d="M28.954 31.2799V33.6541C28.7937 33.6541 28.6589 33.6541 28.5232 33.6541C27.2238 33.6541 25.9244 33.6541 24.6241 33.655C24.4964 33.655 24.3687 33.67 24.24 33.6779L24.2497 33.6849C24.2462 32.8833 24.2418 32.0807 24.2383 31.2791C25.8134 31.2826 27.3877 31.287 28.9628 31.2905L28.9531 31.2808L28.954 31.2799Z" fill="white"/>
<path d="M31.2736 28.9604V31.2799C30.4861 31.2799 29.7205 31.2799 28.9541 31.2799L28.9638 31.2896V28.9692H31.2842L31.2745 28.9595L31.2736 28.9604Z" fill="white"/>
<path d="M4.68594 17.2102H9.35938V9.40234H11.7291V19.5209H24.2404V9.40234H26.5872V17.2102H31.2836V19.5297H26.6137V26.5756H24.2395V21.9294H11.7283V26.5756H9.37876V19.5553H4.68506V17.2111L4.68594 17.2102Z" fill="white"/>
<path d="M11.7202 31.2905C11.7202 29.7153 11.7202 28.1402 11.7202 26.5659C12.3378 26.5774 12.9553 26.5888 13.5737 26.5994C13.7235 26.602 13.8733 26.5994 14.0503 26.5994V31.2905C13.2733 31.2905 12.4972 31.2905 11.7202 31.2905Z" fill="white"/>
<path d="M24.251 26.5651C24.251 28.1402 24.251 29.7154 24.251 31.2896C23.474 31.2896 22.6979 31.2896 21.9209 31.2896V26.5642H24.251V26.5651Z" fill="white"/>
<path d="M21.9209 4.68677C22.6979 4.68677 23.474 4.68677 24.251 4.68677C24.251 6.26191 24.251 7.83704 24.251 9.4113C23.6335 9.39985 23.0159 9.38839 22.3975 9.37782C22.2486 9.37518 22.0989 9.37782 21.9209 9.37782V4.68677Z" fill="white"/>
<path d="M11.7202 9.41203C11.7202 7.83689 11.7202 6.26176 11.7202 4.6875C12.4972 4.6875 13.2733 4.6875 14.0503 4.6875C14.0503 6.23797 14.0503 7.78932 14.0503 9.41291H11.7202V9.41203Z" fill="white"/>
</g>
<defs>
<clipPath id="clip0_38_2">
<rect width="35.993" height="36" fill="white"/>
</clipPath>
</defs>
</svg>
